<svg width="14" height="9" viewBox="0 0 14 9" fill="none" xmlns="http://www.w3.org/2000/svg">
<path fill-rule="evenodd" clip-rule="evenodd" d="M0 4.5C0 4.32953 0.0658406 4.16605 0.183038 4.04551C0.300235 3.92498 0.459189 3.85726 0.62493 3.85726H11.8654L9.18192 1.09861C9.06458 0.977925 8.99865 0.814234 8.99865 0.643553C8.99865 0.472872 9.06458 0.309182 9.18192 0.188492C9.29927 0.0678029 9.45842 0 9.62437 0C9.79032 0 9.94948 0.0678029 10.0668 0.188492L13.8164 4.04494C13.8746 4.10464 13.9208 4.17557 13.9523 4.25366C13.9838 4.33175 14 4.41546 14 4.5C14 4.58454 13.9838 4.66825 13.9523 4.74634C13.9208 4.82443 13.8746 4.89536 13.8164 4.95506L10.0668 8.81151C9.94948 8.9322 9.79032 9 9.62437 9C9.45842 9 9.29927 8.9322 9.18192 8.81151C9.06458 8.69082 8.99865 8.52713 8.99865 8.35645C8.99865 8.18577 9.06458 8.02208 9.18192 7.90139L11.8654 5.14274H0.62493C0.459189 5.14274 0.300235 5.07502 0.183038 4.95449C0.0658406 4.83395 0 4.67047 0 4.5Z" fill="url(#paint0_linear_365_1218)"/>
<defs>
<linearGradient id="paint0_linear_365_1218" x1="0" y1="0" x2="8.18773" y2="12.7365" gradientUnits="userSpaceOnUse">
<stop stop-color="#9983FF"/>
<stop offset="1" stop-color="#5208F0"/>
</linearGradient>
</defs>
</svg>
