<svg width="15" height="18" viewBox="0 0 15 18" fill="none" xmlns="http://www.w3.org/2000/svg">
<path d="M11.1034 0.500584C10.8396 0.226173 10.379 0.414996 10.379 0.79529V3.12206C10.379 4.09794 11.1829 4.90088 12.1587 4.90088C12.7737 4.90794 13.6279 4.9097 14.3531 4.90794C14.7246 4.90706 14.9134 4.46323 14.6558 4.195C13.7249 3.22706 12.0581 1.49235 11.1034 0.500584Z" fill="url(#paint0_linear_373_4521)"/>
<path fill-rule="evenodd" clip-rule="evenodd" d="M12.9102 6.19141C13.1342 6.19331 13.3334 6.195 13.5078 6.195C13.7041 6.195 13.9911 6.19271 14.2757 6.19044C14.3862 6.18956 14.4964 6.18868 14.6007 6.18794C14.8226 6.18706 15 6.36794 15 6.59206V13.6782C15 15.8709 13.2404 17.6471 11.0702 17.6471H4.12022C1.84431 17.6471 0 15.7844 0 13.4859V3.97853C0 1.78765 1.76044 0 3.93849 0H8.60563C8.82666 0 9.00489 0.181765 9.00489 0.405V3.24265C9.00489 4.86 10.3224 6.18618 11.9247 6.18618C12.2941 6.18618 12.6226 6.18897 12.9102 6.19141ZM10.2909 12.0334C10.2909 11.6707 9.9962 11.376 9.63355 11.376H4.83002C4.46737 11.376 4.17355 11.6707 4.17355 12.0334C4.17355 12.396 4.46737 12.6898 4.83002 12.6898H9.63355C9.9962 12.6898 10.2909 12.396 10.2909 12.0334ZM8.47405 7.62671C8.47405 7.26407 8.17934 6.96936 7.8167 6.96936H4.82993C4.46729 6.96936 4.17346 7.26407 4.17346 7.62671C4.17346 7.98936 4.46729 8.28318 4.82993 8.28318H7.8167C8.17934 8.28318 8.47405 7.98936 8.47405 7.62671Z" fill="url(#paint1_linear_373_4521)"/>
<defs>
<linearGradient id="paint0_linear_373_4521" x1="10.379" y1="0.370483" x2="14.9148" y2="4.76385" gradientUnits="userSpaceOnUse">
<stop stop-color="#9983FF"/>
<stop offset="1" stop-color="#5208F0"/>
</linearGradient>
<linearGradient id="paint1_linear_373_4521" x1="0" y1="0" x2="17.4165" y2="14.8041" gradientUnits="userSpaceOnUse">
<stop stop-color="#9983FF"/>
<stop offset="1" stop-color="#5208F0"/>
</linearGradient>
</defs>
</svg>
