<svg width="20" height="14" viewBox="0 0 20 14" fill="none" xmlns="http://www.w3.org/2000/svg">
<path d="M9.95757 9.11627C12.8169 9.11627 15.2584 9.56957 15.2584 11.3835C15.2584 13.1968 12.8326 13.6666 9.95757 13.6666C7.09825 13.6666 4.65678 13.2133 4.65678 11.4001C4.65678 9.58609 7.08258 9.11627 9.95757 9.11627ZM14.5293 8.02398C15.6224 8.00372 16.7976 8.15382 17.2319 8.26039C18.1519 8.44127 18.7571 8.81051 19.0078 9.34713C19.2197 9.78767 19.2197 10.2988 19.0078 10.7386C18.6242 11.5709 17.3878 11.8381 16.9073 11.9071C16.8081 11.9221 16.7282 11.8358 16.7387 11.736C16.9842 9.42968 15.0314 8.33619 14.5263 8.08477C14.5046 8.07352 14.5002 8.05625 14.5024 8.04575C14.5039 8.03824 14.5129 8.02624 14.5293 8.02398ZM5.26553 8.02243L5.47137 8.02428C5.48779 8.02654 5.496 8.03854 5.49749 8.0453C5.49973 8.05656 5.49525 8.07307 5.47436 8.08507C4.96846 8.33649 3.01573 9.42998 3.26122 11.7355C3.27167 11.8361 3.19257 11.9217 3.09333 11.9074C2.6128 11.8384 1.3764 11.5712 0.992868 10.7389C0.780209 10.2983 0.780209 9.78797 0.992868 9.34743C1.24358 8.81081 1.84798 8.44156 2.768 8.25994C3.20302 8.15412 4.37749 8.00402 5.47137 8.02428L5.26553 8.02243ZM9.95757 0.333252C11.9043 0.333252 13.4653 1.90181 13.4653 3.86063C13.4653 5.8187 11.9043 7.38876 9.95757 7.38876C8.01081 7.38876 6.44982 5.8187 6.44982 3.86063C6.44982 1.90181 8.01081 0.333252 9.95757 0.333252ZM14.7195 0.921498C16.5999 0.921498 18.0766 2.70095 17.5736 4.68303C17.2341 6.01743 16.0052 6.90378 14.636 6.86775C14.4987 6.864 14.3636 6.85124 14.233 6.82873C14.1383 6.81222 14.0905 6.70489 14.1442 6.62534C14.6666 5.85232 14.9643 4.92244 14.9643 3.92427C14.9643 2.88257 14.639 1.91142 14.0741 1.11513C14.0562 1.09036 14.0428 1.05209 14.0607 1.02357C14.0756 1.0003 14.1032 0.988293 14.1293 0.982289C14.3196 0.943263 14.5151 0.921498 14.7195 0.921498ZM5.27998 0.921423C5.48443 0.921423 5.67993 0.943188 5.87095 0.982214C5.89632 0.988218 5.92467 1.00098 5.93959 1.02349C5.95676 1.05201 5.94407 1.09029 5.92616 1.11505C5.36131 1.91134 5.03598 2.88249 5.03598 3.9242C5.03598 4.92237 5.33371 5.85225 5.85602 6.62527C5.90975 6.70482 5.86199 6.81214 5.76723 6.82865C5.6359 6.85192 5.50159 6.86393 5.3643 6.86768C3.99508 6.9037 2.76614 6.01736 2.42663 4.68296C1.92297 2.70087 3.39964 0.921423 5.27998 0.921423Z" fill="url(#paint0_linear_322_4811)"/>
<defs>
<linearGradient id="paint0_linear_322_4811" x1="0.833374" y1="0.333252" x2="13.5181" y2="17.7747" gradientUnits="userSpaceOnUse">
<stop stop-color="#9983FF"/>
<stop offset="1" stop-color="#5208F0"/>
</linearGradient>
</defs>
</svg>
