<svg width="13" height="12" viewBox="0 0 13 12" fill="none" xmlns="http://www.w3.org/2000/svg">
<path d="M11.9043 5.25H7.4043V0.75C7.4043 0.551088 7.32528 0.360322 7.18463 0.21967C7.04397 0.0790178 6.85321 0 6.6543 0C6.45538 0 6.26462 0.0790178 6.12397 0.21967C5.98331 0.360322 5.9043 0.551088 5.9043 0.75V5.25H1.4043C1.20538 5.25 1.01462 5.32902 0.873967 5.46967C0.733315 5.61032 0.654297 5.80109 0.654297 6C0.654297 6.19891 0.733315 6.38968 0.873967 6.53033C1.01462 6.67098 1.20538 6.75 1.4043 6.75H5.9043V11.25C5.9043 11.4489 5.98331 11.6397 6.12397 11.7803C6.26462 11.921 6.45538 12 6.6543 12C6.85321 12 7.04397 11.921 7.18463 11.7803C7.32528 11.6397 7.4043 11.4489 7.4043 11.25V6.75H11.9043C12.1032 6.75 12.294 6.67098 12.4346 6.53033C12.5753 6.38968 12.6543 6.19891 12.6543 6C12.6543 5.80109 12.5753 5.61032 12.4346 5.46967C12.294 5.32902 12.1032 5.25 11.9043 5.25Z" fill="url(#paint0_linear_316_8941)"/>
<defs>
<linearGradient id="paint0_linear_316_8941" x1="0.654297" y1="0" x2="12.6543" y2="12" gradientUnits="userSpaceOnUse">
<stop stop-color="#9983FF"/>
<stop offset="1" stop-color="#5208F0"/>
</linearGradient>
</defs>
</svg>
