<svg width="18" height="16" viewBox="0 0 18 16" fill="none" xmlns="http://www.w3.org/2000/svg">
<path d="M6.97009 10.5391C10.3948 10.5391 13.2859 11.1026 13.2859 13.2789C13.2859 15.4553 10.3762 16 6.97009 16C3.54542 16 0.654297 15.4356 0.654297 13.2602C0.654297 11.0838 3.56312 10.5391 6.97009 10.5391ZM14.9692 4.21053C15.3871 4.21053 15.7263 4.55532 15.7263 4.9782V5.96873H16.7394C17.1564 5.96873 17.4964 6.31352 17.4964 6.7364C17.4964 7.15928 17.1564 7.50408 16.7394 7.50408H15.7263V8.49548C15.7263 8.91836 15.3871 9.26316 14.9692 9.26316C14.5522 9.26316 14.2122 8.91836 14.2122 8.49548V7.50408H13.2008C12.7829 7.50408 12.4438 7.15928 12.4438 6.7364C12.4438 6.31352 12.7829 5.96873 13.2008 5.96873H14.2122V4.9782C14.2122 4.55532 14.5522 4.21053 14.9692 4.21053ZM6.97009 0C9.28973 0 11.1491 1.88348 11.1491 4.23313C11.1491 6.58278 9.28973 8.46626 6.97009 8.46626C4.65045 8.46626 2.79103 6.58278 2.79103 4.23313C2.79103 1.88348 4.65045 0 6.97009 0Z" fill="url(#paint0_linear_316_8893)"/>
<defs>
<linearGradient id="paint0_linear_316_8893" x1="0.654297" y1="0" x2="16.6333" y2="16.82" gradientUnits="userSpaceOnUse">
<stop stop-color="#9983FF"/>
<stop offset="1" stop-color="#5208F0"/>
</linearGradient>
</defs>
</svg>
