<svg width="13" height="16" viewBox="0 0 13 16" fill="none" xmlns="http://www.w3.org/2000/svg">
<path d="M1.6 0C1.17565 0 0.768687 0.168571 0.468629 0.468629C0.168571 0.768687 0 1.17565 0 1.6V14.4C0 14.8243 0.168571 15.2313 0.468629 15.5314C0.768687 15.8314 1.17565 16 1.6 16H11.2C11.6243 16 12.0313 15.8314 12.3314 15.5314C12.6314 15.2313 12.8 14.8243 12.8 14.4V4.8L8 0H5.6V1.6H4V3.2H5.6V4.8H4V6.4H5.6V12.8H2.4V8H4V6.4H2.4V4.8H4V3.2H2.4V1.6H4V0H1.6ZM7.2 1.6L11.2 5.6H7.2V1.6Z" fill="url(#paint0_linear_316_8905)"/>
<defs>
<linearGradient id="paint0_linear_316_8905" x1="0" y1="0" x2="15.6098" y2="12.4878" gradientUnits="userSpaceOnUse">
<stop stop-color="#9983FF"/>
<stop offset="1" stop-color="#5208F0"/>
</linearGradient>
</defs>
</svg>
