<svg width="16" height="16" viewBox="0 0 16 16" fill="none" xmlns="http://www.w3.org/2000/svg">
<path d="M10.9205 1.80419e-06C11.2601 -0.000795983 11.5287 0.263072 11.5295 0.614895L11.5303 1.21459C13.734 1.38731 15.1897 2.88896 15.1921 5.1918L15.2008 11.9324C15.2039 14.4432 13.6266 15.988 11.0982 15.992L4.92229 16C2.40974 16.0032 0.81264 14.4216 0.80948 11.9036L0.800787 5.24218C0.797632 2.92414 2.20201 1.42649 4.40572 1.22419L4.40493 0.624491C4.40414 0.272667 4.6648 0.00799961 5.01234 0.00799961C5.35988 0.00720001 5.62053 0.271068 5.62132 0.622891L5.62211 1.18261L10.3139 1.17621L10.3131 0.616495C10.3123 0.264671 10.573 0.000803216 10.9205 1.80419e-06ZM11.2428 11.3535H11.2349C10.8715 11.3623 10.5801 11.667 10.588 12.0348C10.5888 12.4026 10.8818 12.7056 11.2451 12.7136C11.6156 12.7128 11.9157 12.4082 11.9149 12.0324C11.9149 11.6566 11.614 11.3535 11.2428 11.3535ZM4.7343 11.3543C4.37097 11.3703 4.08662 11.675 4.08741 12.0428C4.10399 12.4106 4.40414 12.6984 4.76748 12.6816C5.12371 12.6657 5.40727 12.361 5.39068 11.9932C5.38278 11.6334 5.08974 11.3535 4.7343 11.3543ZM7.98854 11.3503C7.6252 11.3671 7.34164 11.671 7.34164 12.0388C7.35823 12.4066 7.65837 12.6936 8.02171 12.6776C8.37715 12.6609 8.6615 12.357 8.64491 11.9884C8.63701 11.6294 8.34397 11.3495 7.98854 11.3503ZM4.73036 8.47575C4.36702 8.49175 4.08346 8.79639 4.08425 9.16421C4.10005 9.53203 4.40098 9.81988 4.76432 9.80309C5.11976 9.7871 5.40332 9.48245 5.38673 9.11464C5.37883 8.75482 5.08658 8.47496 4.73036 8.47575ZM7.98538 8.44777C7.62204 8.46376 7.33769 8.76841 7.33848 9.13622C7.35428 9.50404 7.65521 9.7911 8.01855 9.7751C8.37399 9.75831 8.65755 9.45446 8.64175 9.08665C8.63306 8.72683 8.34082 8.44697 7.98538 8.44777ZM11.2396 8.45177C10.8763 8.45976 10.5919 8.75562 10.5927 9.12343V9.13223C10.6006 9.50004 10.9008 9.7791 11.2649 9.77111C11.6203 9.76231 11.9039 9.45766 11.896 9.08985C11.8794 8.73802 11.5943 8.45097 11.2396 8.45177ZM10.3155 2.4076L5.62369 2.41399L5.62448 3.06087C5.62448 3.4055 5.36461 3.67736 5.01708 3.67736C4.66954 3.67816 4.40809 3.4071 4.40809 3.06247L4.4073 2.44678C2.86707 2.6011 2.01481 3.50625 2.01717 5.24058L2.01797 5.48925L13.9765 5.47326V5.1934C13.9425 3.47426 13.08 2.57231 11.5319 2.43798L11.5326 3.05367C11.5326 3.3975 11.2649 3.67016 10.9252 3.67016C10.5777 3.67096 10.3163 3.3991 10.3163 3.05527L10.3155 2.4076Z" fill="url(#paint0_linear_316_8921)"/>
<defs>
<linearGradient id="paint0_linear_316_8921" x1="0.800781" y1="0" x2="16.7124" y2="14.3204" gradientUnits="userSpaceOnUse">
<stop stop-color="#9983FF"/>
<stop offset="1" stop-color="#5208F0"/>
</linearGradient>
</defs>
</svg>
