<svg width="16" height="16" viewBox="0 0 16 16" fill="none" xmlns="http://www.w3.org/2000/svg">
<path d="M4.73595 9.1759C5.86397 9.1759 6.76798 10.0887 6.76798 11.2247V13.952C6.76798 15.08 5.86397 16 4.73595 16H2.03191C0.911892 16 -0.00012207 15.08 -0.00012207 13.952V11.2247C-0.00012207 10.0887 0.911892 9.1759 2.03191 9.1759H4.73595ZM13.9682 9.1759C15.0882 9.1759 16.0002 10.0887 16.0002 11.2247V13.952C16.0002 15.08 15.0882 16 13.9682 16H11.2641C10.1361 16 9.2321 15.08 9.2321 13.952V11.2247C9.2321 10.0887 10.1361 9.1759 11.2641 9.1759H13.9682ZM4.73595 0C5.86397 0 6.76798 0.920014 6.76798 2.04883V4.77607C6.76798 5.91209 5.86397 6.8241 4.73595 6.8241H2.03191C0.911892 6.8241 -0.00012207 5.91209 -0.00012207 4.77607V2.04883C-0.00012207 0.920014 0.911892 0 2.03191 0H4.73595ZM13.9682 0C15.0882 0 16.0002 0.920014 16.0002 2.04883V4.77607C16.0002 5.91209 15.0882 6.8241 13.9682 6.8241H11.2641C10.1361 6.8241 9.2321 5.91209 9.2321 4.77607V2.04883C9.2321 0.920014 10.1361 0 11.2641 0H13.9682Z" fill="url(#paint0_linear_316_8887)"/>
<defs>
<linearGradient id="paint0_linear_316_8887" x1="-0.00012207" y1="0" x2="15.9999" y2="16.0003" gradientUnits="userSpaceOnUse">
<stop stop-color="#9983FF"/>
<stop offset="1" stop-color="#5208F0"/>
</linearGradient>
</defs>
</svg>
