<svg width="14" height="14" viewBox="0 0 14 14" fill="none" xmlns="http://www.w3.org/2000/svg">
<path d="M10.038 0C12.411 0 14 1.666 14 4.144V9.8637C14 12.3347 12.411 14 10.038 14H3.969C1.596 14 0 12.3347 0 9.8637V4.144C0 1.666 1.596 0 3.969 0H10.038ZM9.107 4.8797C8.869 4.641 8.484 4.641 8.239 4.8797L7 6.125L5.754 4.8797C5.509 4.641 5.124 4.641 4.886 4.8797C4.648 5.1177 4.648 5.5097 4.886 5.747L6.132 6.9937L4.886 8.2327C4.648 8.4777 4.648 8.8627 4.886 9.1C5.005 9.219 5.166 9.2827 5.32 9.2827C5.481 9.2827 5.635 9.219 5.754 9.1L7 7.8617L8.246 9.1C8.365 9.2267 8.519 9.2827 8.673 9.2827C8.834 9.2827 8.988 9.219 9.107 9.1C9.345 8.8627 9.345 8.4777 9.107 8.2397L7.861 6.9937L9.107 5.747C9.345 5.5097 9.345 5.1177 9.107 4.8797Z" fill="url(#paint0_linear_316_8947)"/>
<defs>
<linearGradient id="paint0_linear_316_8947" x1="0" y1="0" x2="14" y2="14" gradientUnits="userSpaceOnUse">
<stop stop-color="#9983FF"/>
<stop offset="1" stop-color="#5208F0"/>
</linearGradient>
</defs>
</svg>
