<svg width="15" height="16" viewBox="0 0 15 16" fill="none" xmlns="http://www.w3.org/2000/svg">
<path d="M10.5535 0C13.0247 0 14.4007 1.424 14.4007 3.864V12.128C14.4007 14.608 13.0247 16 10.5535 16H3.84873C1.41673 16 0.000732422 14.608 0.000732422 12.128V3.864C0.000732422 1.424 1.41673 0 3.84873 0H10.5535ZM4.06473 10.992C3.82473 10.968 3.59273 11.08 3.46473 11.288C3.33673 11.488 3.33673 11.752 3.46473 11.96C3.59273 12.16 3.82473 12.28 4.06473 12.248H10.3367C10.6559 12.216 10.8967 11.9432 10.8967 11.624C10.8967 11.296 10.6559 11.024 10.3367 10.992H4.06473ZM10.3367 7.3432H4.06473C3.71993 7.3432 3.44073 7.624 3.44073 7.968C3.44073 8.312 3.71993 8.592 4.06473 8.592H10.3367C10.6807 8.592 10.9607 8.312 10.9607 7.968C10.9607 7.624 10.6807 7.3432 10.3367 7.3432ZM6.45593 3.72H4.06473V3.728C3.71993 3.728 3.44073 4.008 3.44073 4.352C3.44073 4.696 3.71993 4.976 4.06473 4.976H6.45593C6.80073 4.976 7.08073 4.696 7.08073 4.3432C7.08073 4 6.80073 3.72 6.45593 3.72Z" fill="url(#paint0_linear_316_8929)"/>
<defs>
<linearGradient id="paint0_linear_316_8929" x1="0.000732422" y1="0" x2="15.9123" y2="14.3204" gradientUnits="userSpaceOnUse">
<stop stop-color="#9983FF"/>
<stop offset="1" stop-color="#5208F0"/>
</linearGradient>
</defs>
</svg>
