<svg width="15" height="16" viewBox="0 0 15 16" fill="none" xmlns="http://www.w3.org/2000/svg">
<path d="M8.40281 0C8.60083 0 8.76717 0.168 8.76717 0.368V2.944C8.76717 4.408 9.95529 5.608 11.4127 5.616C12.0068 5.616 12.4899 5.624 12.8464 5.624L12.9813 5.62341C13.2248 5.62156 13.5526 5.616 13.8365 5.616C14.0424 5.616 14.2008 5.776 14.2008 5.976V12.408C14.2008 14.392 12.6008 16 10.6365 16H4.33944C2.27212 16 0.60083 14.312 0.60083 12.232V3.608C0.60083 1.624 2.19291 0 4.17311 0H8.40281ZM7.11172 5.392C6.78697 5.392 6.51766 5.656 6.51766 5.992V9.848L5.25826 8.568C5.02855 8.336 4.65628 8.336 4.42657 8.568C4.19687 8.8 4.19687 9.176 4.42657 9.416L6.69192 11.712C6.74736 11.768 6.81073 11.808 6.88202 11.84C6.95331 11.872 7.03251 11.888 7.11172 11.888C7.19093 11.888 7.26222 11.872 7.3335 11.84C7.40479 11.808 7.46816 11.768 7.5236 11.712L9.79687 9.416C10.0266 9.176 10.0266 8.8 9.78895 8.568C9.55925 8.336 9.18697 8.336 8.95727 8.568L7.69786 9.848V5.992C7.69786 5.656 7.43647 5.392 7.11172 5.392ZM9.91687 0.72488C9.91687 0.38008 10.3311 0.20888 10.5672 0.45768C11.4242 1.35688 12.9204 2.92888 13.7569 3.80728C13.9882 4.04968 13.8187 4.45208 13.4844 4.45288C12.8341 4.45528 12.0666 4.45288 11.5145 4.44728C10.6385 4.44728 9.91687 3.71848 9.91687 2.83368V0.72488Z" fill="url(#paint0_linear_316_8919)"/>
<defs>
<linearGradient id="paint0_linear_316_8919" x1="0.60083" y1="0" x2="16.3918" y2="13.4224" gradientUnits="userSpaceOnUse">
<stop stop-color="#9983FF"/>
<stop offset="1" stop-color="#5208F0"/>
</linearGradient>
</defs>
</svg>
