<svg width="20" height="16" viewBox="0 0 20 16" fill="none" xmlns="http://www.w3.org/2000/svg">
<path d="M16.716 0.201535C16.9915 -0.0671782 17.4231 -0.0671782 17.6894 0.201535C17.9649 0.470248 17.9649 0.915014 17.6894 1.18373L16.0181 2.87013C17.3497 4.09324 18.4792 5.74258 19.3241 7.7255C19.3976 7.90155 19.3976 8.1054 19.3241 8.27219C17.3588 12.8866 13.86 15.6479 9.96619 15.6479H9.95701C8.18461 15.6479 6.48567 15.0641 4.98878 13.9986L3.20719 15.7961C3.06944 15.9351 2.89496 16 2.72047 16C2.54599 16 2.36232 15.9351 2.23375 15.7961C2.00416 15.5645 1.96743 15.1939 2.1511 14.9251L2.17865 14.8881L15.7609 1.18373C15.7793 1.16519 15.7977 1.14666 15.8068 1.12813C15.8252 1.1096 15.8436 1.09107 15.8528 1.07254L16.716 0.201535ZM9.96867 0.36267C11.2819 0.36267 12.5584 0.677712 13.7339 1.27073L10.6666 4.36557C10.4462 4.3285 10.2074 4.3007 9.96867 4.3007C7.93913 4.3007 6.2953 5.95931 6.2953 8.00709C6.2953 8.248 6.32285 8.48892 6.35959 8.7113L2.96172 12.1397C2.04338 11.0649 1.24442 9.76762 0.610765 8.2758C0.537297 8.10901 0.537297 7.90516 0.610765 7.72911C2.57602 3.11466 6.0749 0.36267 9.95949 0.36267H9.96867ZM12.9967 5.91863L11.9957 6.92862C12.161 7.24367 12.2529 7.6143 12.2529 8.00347C12.2529 9.27291 11.2243 10.3107 9.96619 10.3107C9.58049 10.3107 9.21315 10.218 8.90091 10.0513L7.89992 11.0612C8.48766 11.4597 9.20397 11.7006 9.96619 11.7006C11.9865 11.7006 13.6304 10.042 13.6304 8.00347C13.6304 7.2344 13.3916 6.51165 12.9967 5.91863Z" fill="url(#paint0_linear_316_8899)"/>
<defs>
<linearGradient id="paint0_linear_316_8899" x1="0.555664" y1="0" x2="16.3467" y2="18.5776" gradientUnits="userSpaceOnUse">
<stop stop-color="#9983FF"/>
<stop offset="1" stop-color="#5208F0"/>
</linearGradient>
</defs>
</svg>
