<svg width="21" height="16" viewBox="0 0 21 16" fill="none" xmlns="http://www.w3.org/2000/svg">
<path d="M16.9778 15.6718H13.5496C13.2802 15.6718 13.0598 15.4514 13.0598 15.182V13.5496C13.0598 13.2802 13.2802 13.0598 13.5496 13.0598H16.9778C17.7001 13.0598 18.2837 12.4762 18.2837 11.7538V3.91794C18.2837 3.19557 17.7001 2.61196 16.9778 2.61196H13.5496C13.2802 2.61196 13.0598 2.39158 13.0598 2.12222V0.489743C13.0598 0.220384 13.2802 0 13.5496 0H16.9778C19.1408 0 20.8957 1.75491 20.8957 3.91794V11.7538C20.8957 13.9169 19.1408 15.6718 16.9778 15.6718ZM15.0596 7.46858L8.20319 0.612179C7.59101 0 6.5299 0.428525 6.5299 1.30598V5.22392H0.979486C0.436687 5.22392 0 5.66061 0 6.20341V10.1214C0 10.6641 0.436687 11.1008 0.979486 11.1008H6.5299V15.0188C6.5299 15.8962 7.59101 16.3248 8.20319 15.7126L15.0596 8.85618C15.4391 8.47255 15.4391 7.85221 15.0596 7.46858Z" fill="url(#paint0_linear_408_4712)"/>
<defs>
<linearGradient id="paint0_linear_408_4712" x1="0" y1="0" x2="15.4463" y2="20.1726" gradientUnits="userSpaceOnUse">
<stop stop-color="#9983FF"/>
<stop offset="1" stop-color="#5208F0"/>
</linearGradient>
</defs>
</svg>
