<svg width="15" height="14" viewBox="0 0 15 14" fill="none" xmlns="http://www.w3.org/2000/svg">
<path d="M14.1606 4.15744V4.20669C14.1606 4.78693 14.1606 5.07772 14.0209 5.31521C13.8812 5.5527 13.6269 5.69371 13.1195 5.97641L12.5845 6.27327C12.9529 5.02644 13.0763 3.68651 13.1215 2.54088L13.1283 2.39177L13.1296 2.35669C13.5689 2.50917 13.8158 2.62319 13.9696 2.83639C14.1606 3.10155 14.1606 3.45374 14.1606 4.15744ZM0.666748 4.15744V4.20669C0.666748 4.78693 0.666748 5.07772 0.806409 5.31521C0.94607 5.5527 1.20043 5.69371 1.7078 5.97641L2.2435 6.27327C1.87445 5.02644 1.75098 3.68651 1.70577 2.54088L1.69903 2.39177L1.69835 2.35669C1.25845 2.50917 1.01152 2.62319 0.857686 2.83639C0.666748 3.10155 0.666748 3.45441 0.666748 4.15744Z" fill="url(#paint0_linear_316_8935)"/>
<path fill-rule="evenodd" clip-rule="evenodd" d="M7.41367 0.000158719C8.61732 0.000158719 9.60844 0.106085 10.3668 0.234276C11.1353 0.363817 11.5192 0.428588 11.8403 0.823957C12.1615 1.21933 12.1439 1.6464 12.1102 2.50056C11.9941 5.4348 11.3613 9.09904 7.91969 9.4229V11.8073H8.8845C9.04041 11.8073 9.19148 11.8614 9.31202 11.9603C9.43256 12.0592 9.51513 12.1968 9.54569 12.3497L9.67388 12.988H11.4618C11.596 12.988 11.7247 13.0413 11.8196 13.1362C11.9145 13.2311 11.9678 13.3598 11.9678 13.494C11.9678 13.6282 11.9145 13.7569 11.8196 13.8518C11.7247 13.9467 11.596 14 11.4618 14H3.36552C3.23132 14 3.10261 13.9467 3.00771 13.8518C2.91282 13.7569 2.8595 13.6282 2.8595 13.494C2.8595 13.3598 2.91282 13.2311 3.00771 13.1362C3.10261 13.0413 3.23132 12.988 3.36552 12.988H5.15345L5.28164 12.3497C5.3122 12.1968 5.39477 12.0592 5.51531 11.9603C5.63585 11.8614 5.78693 11.8073 5.94284 11.8073H6.90765V9.4229C3.46673 9.09904 2.83386 5.43412 2.71782 2.50056C2.68341 1.6464 2.66654 1.21865 2.98769 0.823957C3.30817 0.428588 3.69207 0.363817 4.46055 0.234276C5.4367 0.0742913 6.4245 -0.00401922 7.41367 0.000158719ZM8.05597 2.83319L7.98985 2.71444C7.73347 2.25363 7.60528 2.02423 7.41367 2.02423C7.22206 2.02423 7.09386 2.25363 6.83748 2.71444L6.77136 2.83319C6.6985 2.96408 6.66206 3.02885 6.60539 3.07203C6.54804 3.11521 6.4772 3.1314 6.33551 3.16311L6.20732 3.1928C5.7094 3.30547 5.46044 3.36147 5.40106 3.55173C5.34169 3.74267 5.51171 3.94103 5.85108 4.33775L5.93879 4.4403C6.03527 4.55297 6.08385 4.60897 6.10544 4.67914C6.12703 4.74931 6.11961 4.8242 6.10544 4.97466L6.09195 5.11162C6.04067 5.64125 6.01503 5.90641 6.16954 6.0238C6.32472 6.1412 6.55816 6.03392 7.02437 5.81937L7.14447 5.76405C7.27738 5.70332 7.3435 5.67296 7.41367 5.67296C7.48384 5.67296 7.54996 5.70332 7.68287 5.76405L7.80296 5.81937C8.26918 6.0346 8.50262 6.1412 8.6578 6.0238C8.81298 5.90641 8.78666 5.64125 8.73539 5.11162L8.72189 4.97466C8.70773 4.8242 8.7003 4.74931 8.72189 4.67914C8.74348 4.60965 8.79206 4.55297 8.88854 4.4403L8.97625 4.33775C9.31562 3.94103 9.48564 3.74267 9.42627 3.55173C9.3669 3.36147 9.11794 3.30547 8.62002 3.1928L8.49182 3.16311C8.35014 3.1314 8.2793 3.11588 8.22195 3.07203C8.16527 3.02885 8.12884 2.96408 8.05597 2.83319Z" fill="url(#paint1_linear_316_8935)"/>
<defs>
<linearGradient id="paint0_linear_316_8935" x1="0.666748" y1="2.35669" x2="2.76367" y2="9.58122" gradientUnits="userSpaceOnUse">
<stop stop-color="#9983FF"/>
<stop offset="1" stop-color="#5208F0"/>
</linearGradient>
<linearGradient id="paint1_linear_316_8935" x1="2.70007" y1="0" x2="15.6726" y2="8.73569" gradientUnits="userSpaceOnUse">
<stop stop-color="#9983FF"/>
<stop offset="1" stop-color="#5208F0"/>
</linearGradient>
</defs>
</svg>
