<svg width="16" height="16" viewBox="0 0 16 16" fill="none" xmlns="http://www.w3.org/2000/svg">
<path d="M8.97456 0C9.57956 0 10.1273 0.336 10.4298 0.832C10.577 1.072 10.6751 1.368 10.6506 1.68C10.6342 1.92 10.7078 2.16 10.8386 2.384C11.2556 3.064 12.1794 3.32 12.8989 2.936C13.7083 2.472 14.7302 2.752 15.1962 3.544L15.744 4.488C16.2182 5.28 15.9566 6.296 15.139 6.752C14.4441 7.16 14.1988 8.064 14.6158 8.752C14.7466 8.968 14.8937 9.152 15.1227 9.264C15.4088 9.416 15.6295 9.656 15.7849 9.896C16.0874 10.392 16.0629 11 15.7685 11.536L15.1962 12.496C14.8937 13.008 14.3296 13.328 13.7491 13.328C13.463 13.328 13.1441 13.248 12.8825 13.088C12.67 12.952 12.4247 12.904 12.1631 12.904C11.3537 12.904 10.6751 13.568 10.6506 14.36C10.6506 15.28 9.89841 16 8.95821 16H7.84632C6.89794 16 6.14578 15.28 6.14578 14.36C6.12943 13.568 5.45085 12.904 4.64146 12.904C4.37167 12.904 4.1264 12.952 3.922 13.088C3.66038 13.248 3.33336 13.328 3.05538 13.328C2.46674 13.328 1.90262 13.008 1.60012 12.496L1.036 11.536C0.733498 11.016 0.717146 10.392 1.01965 9.896C1.15046 9.656 1.39573 9.416 1.6737 9.264C1.90262 9.152 2.04978 8.968 2.18877 8.752C2.59755 8.064 2.35228 7.16 1.65735 6.752C0.847957 6.296 0.586336 5.28 1.05235 4.488L1.60012 3.544C2.07431 2.752 3.08809 2.472 3.90565 2.936C4.61694 3.32 5.54079 3.064 5.95774 2.384C6.08855 2.16 6.16214 1.92 6.14578 1.68C6.12943 1.368 6.21937 1.072 6.3747 0.832C6.6772 0.336 7.22497 0.016 7.82179 0H8.97456ZM8.41044 5.744C7.12686 5.744 6.08855 6.752 6.08855 8.008C6.08855 9.264 7.12686 10.264 8.41044 10.264C9.69402 10.264 10.7078 9.264 10.7078 8.008C10.7078 6.752 9.69402 5.744 8.41044 5.744Z" fill="url(#paint0_linear_316_8913)"/>
<defs>
<linearGradient id="paint0_linear_316_8913" x1="0.800781" y1="0" x2="16.7798" y2="15.18" gradientUnits="userSpaceOnUse">
<stop stop-color="#9983FF"/>
<stop offset="1" stop-color="#5208F0"/>
</linearGradient>
</defs>
</svg>
