<svg width="26" height="19" viewBox="0 0 26 19" fill="none" xmlns="http://www.w3.org/2000/svg">
<path d="M0 1.58333C0 0.708883 0.708882 0 1.58333 0H23.75C24.6245 0 25.3333 0.708883 25.3333 1.58333V1.58333C25.3333 2.45778 24.6245 3.16667 23.75 3.16667H1.58333C0.708883 3.16667 0 2.45778 0 1.58333V1.58333ZM6.33333 9.5C6.33333 8.62555 7.04222 7.91667 7.91667 7.91667H23.75C24.6245 7.91667 25.3333 8.62555 25.3333 9.5V9.5C25.3333 10.3745 24.6245 11.0833 23.75 11.0833H7.91667C7.04221 11.0833 6.33333 10.3745 6.33333 9.5V9.5ZM14.25 17.4167C14.25 16.5422 14.9589 15.8333 15.8333 15.8333H23.75C24.6245 15.8333 25.3333 16.5422 25.3333 17.4167V17.4167C25.3333 18.2911 24.6245 19 23.75 19H15.8333C14.9589 19 14.25 18.2911 14.25 17.4167V17.4167Z" fill="#7C4AFD"/>
</svg>
