<svg width="48" height="48" viewBox="0 0 48 48" fill="none" xmlns="http://www.w3.org/2000/svg">
<circle cx="24" cy="24" r="24" fill="#7C4AFD"/>
<path opacity="0.5" fill-rule="evenodd" clip-rule="evenodd" d="M31.7494 19.2881C33.4223 19.2881 34.7785 17.934 34.7785 16.2637C34.7785 14.5933 33.4223 13.2393 31.7494 13.2393C30.0764 13.2393 28.7202 14.5933 28.7202 16.2637C28.7202 17.934 30.0764 19.2881 31.7494 19.2881Z" fill="white"/>
<path opacity="0.7" fill-rule="evenodd" clip-rule="evenodd" d="M31.7494 27.1651C33.4223 27.1651 34.7785 25.7481 34.7785 24C34.7785 22.252 33.4223 20.835 31.7494 20.835C30.0764 20.835 28.7202 22.252 28.7202 24C28.7202 25.7481 30.0764 27.1651 31.7494 27.1651Z" fill="white"/>
<path fill-rule="evenodd" clip-rule="evenodd" d="M31.7494 34.7612C33.4223 34.7612 34.7785 33.4072 34.7785 31.7368C34.7785 30.0665 33.4223 28.7124 31.7494 28.7124C30.0764 28.7124 28.7202 30.0665 28.7202 31.7368C28.7202 33.4072 30.0764 34.7612 31.7494 34.7612Z" fill="white"/>
<path opacity="0.6" fill-rule="evenodd" clip-rule="evenodd" d="M24.0004 27.1651C25.7511 27.1651 27.1704 25.7481 27.1704 24C27.1704 22.252 25.7511 20.835 24.0004 20.835C22.2496 20.835 20.8303 22.252 20.8303 24C20.8303 25.7481 22.2496 27.1651 24.0004 27.1651Z" fill="white"/>
<path opacity="0.9" fill-rule="evenodd" clip-rule="evenodd" d="M24.0004 34.7612C25.7511 34.7612 27.1704 33.4072 27.1704 31.7368C27.1704 30.0665 25.7511 28.7124 24.0004 28.7124C22.2496 28.7124 20.8303 30.0665 20.8303 31.7368C20.8303 33.4072 22.2496 34.7612 24.0004 34.7612Z" fill="white"/>
<path opacity="0.8" fill-rule="evenodd" clip-rule="evenodd" d="M16.2509 34.7612C17.9238 34.7612 19.28 33.4072 19.28 31.7368C19.28 30.0665 17.9238 28.7124 16.2509 28.7124C14.5779 28.7124 13.2217 30.0665 13.2217 31.7368C13.2217 33.4072 14.5779 34.7612 16.2509 34.7612Z" fill="white"/>
</svg>
