<svg width="10" height="10" viewBox="0 0 10 10" fill="none" xmlns="http://www.w3.org/2000/svg">
<path opacity="0.7" d="M6.34592 5.00048L9.70951 1.63593C9.80039 1.54815 9.87288 1.44316 9.92275 1.32707C9.97262 1.21098 9.99887 1.08612 9.99996 0.959781C10.0011 0.83344 9.97699 0.708145 9.92914 0.591208C9.8813 0.47427 9.81065 0.368032 9.72131 0.278692C9.63197 0.189352 9.52573 0.118699 9.40879 0.0708559C9.29186 0.023013 9.16656 -0.00106195 9.04022 3.5926e-05C8.91388 0.0011338 8.78902 0.0273825 8.67293 0.0772504C8.55684 0.127118 8.45185 0.199607 8.36408 0.290486L4.99952 3.65408L1.63593 0.290486C1.54815 0.199607 1.44316 0.127118 1.32707 0.0772504C1.21098 0.0273825 1.08612 0.0011338 0.959781 3.5926e-05C0.83344 -0.00106195 0.708145 0.023013 0.591208 0.0708559C0.47427 0.118699 0.368032 0.189352 0.278692 0.278692C0.189352 0.368032 0.118699 0.47427 0.0708559 0.591208C0.023013 0.708145 -0.00106195 0.83344 3.5926e-05 0.959781C0.0011338 1.08612 0.0273825 1.21098 0.0772504 1.32707C0.127118 1.44316 0.199607 1.54815 0.290486 1.63593L3.65408 4.99952L0.290486 8.36408C0.199607 8.45185 0.127118 8.55684 0.0772504 8.67293C0.0273825 8.78902 0.0011338 8.91388 3.5926e-05 9.04022C-0.00106195 9.16656 0.023013 9.29186 0.0708559 9.40879C0.118699 9.52573 0.189352 9.63197 0.278692 9.72131C0.368032 9.81065 0.47427 9.8813 0.591208 9.92914C0.708145 9.97699 0.83344 10.0011 0.959781 9.99996C1.08612 9.99887 1.21098 9.97262 1.32707 9.92275C1.44316 9.87288 1.54815 9.80039 1.63593 9.70951L4.99952 6.34592L8.36408 9.70951C8.45185 9.80039 8.55684 9.87288 8.67293 9.92275C8.78902 9.97262 8.91388 9.99887 9.04022 9.99996C9.16656 10.0011 9.29186 9.97699 9.40879 9.92914C9.52573 9.8813 9.63197 9.81065 9.72131 9.72131C9.81065 9.63197 9.8813 9.52573 9.92914 9.40879C9.97699 9.29186 10.0011 9.16656 9.99996 9.04022C9.99887 8.91388 9.97262 8.78902 9.92275 8.67293C9.87288 8.55684 9.80039 8.45185 9.70951 8.36408L6.34592 5.00048Z" fill="#ADAEB0"/>
</svg>
