<svg width="20" height="20" viewBox="0 0 20 20" fill="none" xmlns="http://www.w3.org/2000/svg">
<path fill-rule="evenodd" clip-rule="evenodd" d="M20 5.92C20 2.38 17.73 0 14.34 0H5.67C2.28 0 0 2.38 0 5.92V14.091C0 17.621 2.28 20 5.67 20H14.34C17.73 20 20 17.621 20 14.091V5.92ZM9.01 13.971C9.01 13.491 9.4 13.101 9.88 13.101C10.37 13.101 10.76 13.491 10.76 13.971C10.76 14.451 10.37 14.851 9.89 14.851C9.4 14.851 9.01 14.451 9.01 13.971ZM9 6.38C9 5.901 9.4 5.5 9.88 5.5C10.36 5.5 10.75 5.901 10.75 6.38V10.8C10.75 11.281 10.36 11.67 9.88 11.67C9.4 11.67 9 11.281 9 10.8V6.38Z" fill="#F3C175"/>
</svg>
