<svg width="12" height="7" viewBox="0 0 12 7" fill="none" xmlns="http://www.w3.org/2000/svg">
<path d="M11.3002 0.300196C11.4835 0.483529 11.5752 0.716862 11.5752 1.0002C11.5752 1.28353 11.4835 1.51686 11.3002 1.7002L6.7002 6.3002C6.6002 6.4002 6.49186 6.47119 6.3752 6.51319C6.25853 6.55453 6.13353 6.57519 6.0002 6.57519C5.86686 6.57519 5.73753 6.55019 5.6122 6.50019C5.48753 6.45019 5.38353 6.38353 5.3002 6.3002L0.700197 1.70019C0.516863 1.51686 0.425195 1.28353 0.425195 1.00019C0.425195 0.716861 0.516863 0.483528 0.700197 0.300195C0.88353 0.116861 1.11686 0.0251942 1.4002 0.0251942C1.68353 0.0251943 1.91686 0.116861 2.1002 0.300195L6.0002 4.20019L9.9002 0.300196C10.0835 0.116862 10.3169 0.025195 10.6002 0.025195C10.8835 0.0251951 11.1169 0.116862 11.3002 0.300196Z" fill="#ADAEB0"/>
</svg>
